#tb 0: 1/25
#media_type 0: video
#codec_id 0: rawvideo
#dimensions 0: 176x144
#sar 0: 0/1
0,          0,          0,        1,    38016, 0xe2d73230
0,          1,          1,        1,    38016, 0xda4dfc8e
0,          2,          2,        1,    38016, 0x7334cb99
0,          3,          3,        1,    38016, 0xd8feab7d
